:FULLY-SPECIFIED
:FORCE-ALL-JOINTS-BE-3DOF
:DEGREES
1053
root 1.2068 15.1596 32.5514 4.90272 -3.42943 363.464
lfemur 8.73884 0.49723 5.63608
ltibia 0.113005 0 0
lfoot -30.4366 -11.2062 0
ltoes -34.1905 0 0
rfemur -31.0865 -15.6731 -6.32039
rtibia 50.0179 0 0
rfoot -21.8573 5.46249 0
rtoes -40.9326 0 0
lowerback -1.82412 -0.0539119 -0.259297
upperback -0.487042 -0.0343147 -6.04654
thorax 0.519479 -0.0189467 -6.122
lowerneck -6.97858 0.759311 6.56797
upperneck 1.24337 0.330795 3.65131
head 1.57556 0.289712 0.0477549
lclavicle -5.61025e-15 4.67589e-14 0
lhumerus -58.7053 -46.8391 115.402
lradius 55.8023 0 0
lwrist 25.5294 0 0
lhand 37.42 25.3254 0
lfingers 7.12502 0 0
lthumb 60.2243 38.868 0
rclavicle -5.61025e-15 4.67589e-14 0
rhumerus 2.17028 -23.5223 0.606339
rradius 27.4921 0 0
rwrist -9.73402 0 0
rhand -30.5327 -42.0464 0
rfingers 7.12502 0 0
rthumb -3.8319 -791.992 0
1054
root 1.20869 15.16 32.5556 4.90675 -3.43225 363.455
lfemur 8.72041 0.503536 5.62395
ltibia 0.181546 0 0
lfoot -30.48 -11.1932 0
ltoes -34.19 0 0
rfemur -31.0616 -15.6521 -6.32671
rtibia 50.0004 0 0
rfoot -21.8497 5.46026 0
rtoes -40.9099 0 0
lowerback -1.83725 -0.0542987 -0.272803
upperback -0.487816 -0.0341789 -6.04151
thorax 0.526099 -0.0188055 -6.10894
lowerneck -6.97938 0.756056 6.56426
upperneck 1.24451 0.326511 3.65513
head 1.57598 0.287691 0.0494316
lclavicle -5.40631e-15 4.60902e-14 0
lhumerus -58.7001 -46.8392 115.408
lradius 55.8001 0 0
lwrist 25.5357 0 0
lhand 37.4256 25.3273 0
lfingers 7.12502 0 0
lthumb 60.229 38.8648 0
rclavicle -5.40631e-15 4.60902e-14 0
rhumerus 2.15822 -23.5015 0.611045
rradius 27.4943 0 0
rwrist -9.71384 0 0
rhand -30.538 -42.0254 0
rfingers 7.12502 0 0
rthumb -3.83704 -791.971 0
1055
root 1.21058 15.1604 32.5597 4.91096 -3.43541 363.446
lfemur 8.69945 0.510428 5.61093
ltibia 0.257245 0 0
lfoot -30.5274 -11.1782 0
ltoes -34.1901 0 0
rfemur -31.0352 -15.6301 -6.33285
rtibia 49.9816 0 0
rfoot -21.8423 5.45757 0
rtoes -40.8873 0 0
lowerback -1.85094 -0.0548222 -0.286614
upperback -0.488754 -0.03421 -6.03584
thorax 0.53285 -0.0187496 -6.09503
lowerneck -6.98077 0.75283 6.55967
upperneck 1.24707 0.322208 3.6592
head 1.57697 0.285718 0.0513337
lclavicle -5.11779e-15 4.52984e-14 0
lhumerus -58.6943 -46.8387 115.414
lradius 55.7974 0 0
lwrist 25.5419 0 0
lhand 37.4316 25.3287 0
lfingers 7.12502 0 0
lthumb 60.2341 38.8608 0
rclavicle -5.11779e-15 4.52984e-14 0
rhumerus 2.14654 -23.4793 0.615069
rradius 27.4967 0 0
rwrist -9.69208 0 0
rhand -30.5442 -42.004 0
rfingers 7.12502 0 0
rthumb -3.84294 -791.949 0
1056
root 1.21248 15.1609 32.5638 4.9153 -3.4389 363.436
lfemur 8.67611 0.517844 5.59713
ltibia 0.33945 0 0
lfoot -30.5783 -11.1614 0
ltoes -34.1908 0 0
rfemur -31.0077 -15.6072 -6.33871
rtibia 49.9617 0 0
rfoot -21.835 5.45444 0
rtoes -40.8651 0 0
lowerback -1.86505 -0.0554819 -0.300566
upperback -0.489852 -0.0344154 -6.02958
thorax 0.539654 -0.0187838 -6.08042
lowerneck -6.98275 0.749676 6.55423
upperneck 1.25109 0.31794 3.66347
head 1.57854 0.283821 0.0534469
lclavicle -4.7446e-15 4.43882e-14 0
lhumerus -58.6878 -46.8377 115.421
lradius 55.7943 0 0
lwrist 25.5478 0 0
lhand 37.4379 25.3295 0
lfingers 7.12502 0 0
lthumb 60.2395 38.8558 0
rclavicle -4.7446e-15 4.43882e-14 0
rhumerus 2.13538 -23.4561 0.61833
rradius 27.4994 0 0
rwrist -9.66896 0 0
rhand -30.551 -41.9825 0
rfingers 7.12502 0 0
rthumb -3.84957 -791.928 0
1057
root 1.21437 15.1613 32.5679 4.91974 -3.44269 363.425
lfemur 8.65054 0.52572 5.58269
ltibia 0.427512 0 0
lfoot -30.6323 -11.1429 0
ltoes -34.1922 0 0
rfemur -30.9792 -15.5836 -6.34421
rtibia 49.9409 0 0
rfoot -21.8281 5.45088 0
rtoes -40.8437 0 0
lowerback -1.87943 -0.0562772 -0.314496
upperback -0.491105 -0.034802 -6.02277
thorax 0.546427 -0.0189124 -6.06525
lowerneck -6.98532 0.746637 6.54795
upperneck 1.2566 0.313761 3.66789
head 1.5807 0.282028 0.0557569
lclavicle -4.28663e-15 4.3364e-14 0
lhumerus -58.6807 -46.8362 115.429
lradius 55.7906 0 0
lwrist 25.5535 0 0
lhand 37.4444 25.3296 0
lfingers 7.12502 0 0
lthumb 60.245 38.8501 0
rclavicle -4.28663e-15 4.3364e-14 0
rhumerus 2.12493 -23.4321 0.620745
rradius 27.5022 0 0
rwrist -9.64467 0 0
rhand -30.5586 -41.9611 0
rfingers 7.12502 0 0
rthumb -3.85687 -791.906 0
1058
root 1.21626 15.1617 32.572 4.92421 -3.44675 363.414
lfemur 8.62291 0.533994 5.56774
ltibia 0.520779 0 0
lfoot -30.6889 -11.1227 0
ltoes -34.1942 0 0
rfemur -30.95 -15.5596 -6.34926
rtibia 49.9194 0 0
rfoot -21.8216 5.44689 0
rtoes -40.8233 0 0
lowerback -1.89392 -0.0572075 -0.328239
upperback -0.492508 -0.035377 -6.01545
thorax 0.553091 -0.0191402 -6.04965
lowerneck -6.98851 0.743756 6.54086
upperneck 1.26364 0.309726 3.67244
head 1.58347 0.280366 0.0582494
lclavicle -3.74379e-15 4.22307e-14 0
lhumerus -58.673 -46.8341 115.437
lradius 55.7865 0 0
lwrist 25.5587 0 0
lhand 37.451 25.3291 0
lfingers 7.12502 0 0
lthumb 60.2507 38.8435 0
rclavicle -3.74379e-15 4.22307e-14 0
rhumerus 2.11536 -23.4074 0.622231
rradius 27.5052 0 0
rwrist -9.61943 0 0
rhand -30.5668 -41.9401 0
rfingers 7.12502 0 0
rthumb -3.8648 -791.885 0
1059
root 1.21816 15.1622 32.5762 4.92869 -3.45105 363.402
lfemur 8.59336 0.542606 5.55239
ltibia 0.618602 0 0
lfoot -30.7477 -11.101 0
ltoes -34.1969 0 0
rfemur -30.9205 -15.5355 -6.35377
rtibia 49.8973 0 0
rfoot -21.8156 5.44251 0
rtoes -40.8042 0 0
lowerback -1.90837 -0.0582723 -0.341631
upperback -0.494057 -0.0361475 -6.00768
thorax 0.559564 -0.0194716 -6.03376
lowerneck -6.99232 0.741074 6.53298
upperneck 1.27222 0.30589 3.67707
head 1.58685 0.278862 0.0609101
lclavicle -3.11598e-15 4.09928e-14 0
lhumerus -58.6649 -46.8314 115.444
lradius 55.7819 0 0
lwrist 25.5635 0 0
lhand 37.4578 25.3279 0
lfingers 7.12502 0 0
lthumb 60.2565 38.836 0
rclavicle -3.11598e-15 4.09928e-14 0
rhumerus 2.10681 -23.3824 0.622707
rradius 27.5084 0 0
rwrist -9.59344 0 0
rhand -30.5756 -41.9197 0
rfingers 7.12502 0 0
rthumb -3.87333 -791.864 0
1060
root 1.22005 15.1626 32.5803 4.93312 -3.45558 363.39
lfemur 8.56206 0.551491 5.53679
ltibia 0.720328 0 0
lfoot -30.8083 -11.0779 0
ltoes -34.2004 0 0
rfemur -30.8908 -15.5114 -6.35766
rtibia 49.8749 0 0
rfoot -21.8102 5.43773 0
rtoes -40.7866 0 0
lowerback -1.92264 -0.059471 -0.35451
upperback -0.495747 -0.0371207 -5.99948
thorax 0.565766 -0.0199112 -6.01773
lowerneck -6.99675 0.738636 6.52432
upperneck 1.28239 0.302306 3.68173
head 1.59086 0.277545 0.0637247
lclavicle -2.4031e-15 3.96549e-14 0
lhumerus -58.6562 -46.828 115.452
lradius 55.7768 0 0
lwrist 25.5677 0 0
lhand 37.4647 25.3259 0
lfingers 7.12502 0 0
lthumb 60.2623 38.8278 0
rclavicle -2.4031e-15 3.96549e-14 0
rhumerus 2.09947 -23.3572 0.62209
rradius 27.5116 0 0
rwrist -9.56692 0 0
rhand -30.585 -41.9003 0
rfingers 7.12502 0 0
rthumb -3.88241 -791.845 0
1061
root 1.22194 15.163 32.5844 4.93745 -3.46031 363.378
lfemur 8.52915 0.560588 5.52105
ltibia 0.825308 0 0
lfoot -30.8702 -11.0534 0
ltoes -34.2046 0 0
rfemur -30.8614 -15.4876 -6.36083
rtibia 49.8523 0 0
rfoot -21.8056 5.43258 0
rtoes -40.771 0 0
lowerback -1.93658 -0.0608029 -0.366712
upperback -0.497574 -0.0383035 -5.99091
thorax 0.571615 -0.0204635 -6.0017
lowerneck -7.00182 0.736483 6.5149
upperneck 1.29418 0.299029 3.68639
head 1.59552 0.276441 0.0666789
lclavicle -1.60507e-15 3.82218e-14 0
lhumerus -58.6472 -46.8241 115.461
lradius 55.7713 0 0
lwrist 25.5713 0 0
lhand 37.4715 25.3232 0
lfingers 7.12502 0 0
lthumb 60.2681 38.8188 0
rclavicle -1.60507e-15 3.82218e-14 0
rhumerus 2.09351 -23.3321 0.620298
rradius 27.515 0 0
rwrist -9.54007 0 0
rhand -30.595 -41.8819 0
rfingers 7.12502 0 0
rthumb -3.892 -791.826 0
1062
root 1.22384 15.1635 32.5885 4.94164 -3.46521 363.365
lfemur 8.4948 0.569835 5.5053
ltibia 0.932891 0 0
lfoot -30.933 -11.0277 0
ltoes -34.2096 0 0
rfemur -30.8324 -15.4643 -6.36321
rtibia 49.8297 0 0
rfoot -21.8017 5.42707 0
rtoes -40.7576 0 0
lowerback -1.95002 -0.0622676 -0.378072
upperback -0.499532 -0.0397032 -5.98202
thorax 0.57703 -0.0211332 -5.98581
lowerneck -7.00753 0.734659 6.50475
upperneck 1.30761 0.296114 3.691
head 1.60083 0.275578 0.0697584
lclavicle -7.21772e-16 3.6698e-14 0
lhumerus -58.6378 -46.8195 115.469
lradius 55.7654 0 0
lwrist 25.5741 0 0
lhand 37.4783 25.3196 0
lfingers 7.12502 0 0
lthumb 60.2739 38.809 0
rclavicle -7.21772e-16 3.6698e-14 0
rhumerus 2.08908 -23.3073 0.617248
rradius 27.5185 0 0
rwrist -9.5131 0 0
rhand -30.6054 -41.865 0
rfingers 7.12502 0 0
rthumb -3.90206 -791.809 0
1063
root 1.22573 15.1639 32.5926 4.94564 -3.47026 363.352
lfemur 8.45915 0.57917 5.48967
ltibia 1.04243 0 0
lfoot -30.9963 -11.001 0
ltoes -34.2154 0 0
rfemur -30.8041 -15.4418 -6.3647
rtibia 49.8073 0 0
rfoot -21.7988 5.42121 0
rtoes -40.7467 0 0
lowerback -1.96283 -0.0638645 -0.388427
upperback -0.501618 -0.0413269 -5.97284
thorax 0.581932 -0.0219247 -5.97019
lowerneck -7.01389 0.733206 6.49388
upperneck 1.32272 0.293615 3.69552
head 1.60681 0.274983 0.0729489
lclavicle 2.46876e-16 3.50881e-14 0
lhumerus -58.628 -46.8143 115.477
lradius 55.759 0 0
lwrist 25.5762 0 0
lhand 37.4849 25.3151 0
lfingers 7.12502 0 0
lthumb 60.2796 38.7985 0
rclavicle 2.46876e-16 3.50881e-14 0
rhumerus 2.08635 -23.2831 0.612859
rradius 27.522 0 0
rwrist -9.48622 0 0
rhand -30.6162 -41.8498 0
rfingers 7.12502 0 0
rthumb -3.91254 -791.794 0
1064
root 1.22762 15.1643 32.5967 4.94942 -3.47543 363.339
lfemur 8.42237 0.588529 5.47429
ltibia 1.15326 0 0
lfoot -31.0597 -10.9732 0
ltoes -34.222 0 0
rfemur -30.7768 -15.4203 -6.36521
rtibia 49.7853 0 0
rfoot -21.797 5.41502 0
rtoes -40.7385 0 0
lowerback -1.97485 -0.0655929 -0.397613
upperback -0.503825 -0.0431815 -5.96341
thorax 0.586239 -0.0228427 -5.95499
lowerneck -7.02091 0.732167 6.48232
upperneck 1.33953 0.291586 3.69992
head 1.61347 0.274685 0.0762361
lclavicle 1.30098e-15 3.33969e-14 0
lhumerus -58.618 -46.8083 115.485
lradius 55.7522 0 0
lwrist 25.5773 0 0
lhand 37.4913 25.3097 0
lfingers 7.12502 0 0
lthumb 60.2851 38.7872 0
rclavicle 1.30098e-15 3.33969e-14 0
rhumerus 2.08549 -23.2595 0.607047
rradius 27.5256 0 0
rwrist -9.45964 0 0
rhand -30.6275 -41.8365 0
rfingers 7.12502 0 0
rthumb -3.92341 -791.78 0
